# xmcd CD database file
# Copyright (C) 1993-1998 Ti Kan
# 
# Track frame offsets:
#     182
#     8775
#     19402
#     29702
#     40352
#     56357
#     66997
#     78685
#     88180
#     98322
# 
# Disc length: 1480 seconds
# 
# Revision: 1
# Processed by: cddbd v1.4b41PL1 Copyright (c) Steve Scherf et al.
# Submitted via: DiscPlay 4.0.4
# 
DISCID=7e05c60a
DTITLE=Chet Atkins - Music From Nashville My Home Town
DYEAR=1900
DGENRE=
TTITLE0=Prancin' Filly
TTITLE1=Sidewalks of Nashville
TTITLE2=Solo Soul
TTITLE3=Summer Sunday
TTITLE4=Around The World
TTITLE5=Ain't We Got Fun
TTITLE6=Yours
TTITLE7=Love Offering
TTITLE8=George's Theme
TTITLE9=Lonesome Road
EXTD=
EXTT0=
EXTT1=
EXTT2=
EXTT3=
EXTT4=
EXTT5=
EXTT6=
EXTT7=
EXTT8=
EXTT9=
PLAYORDER=
